<?xml version="1.0" standalone="no"?>
<!DOCTYPE svg PUBLIC "-//W3C//DTD SVG 20010904//EN"
 "http://www.w3.org/TR/2001/REC-SVG-20010904/DTD/svg10.dtd">
<svg version="1.0" xmlns="http://www.w3.org/2000/svg"
 width="1960.000000pt" height="1960.000000pt" viewBox="0 0 1960.000000 1960.000000"
 preserveAspectRatio="xMidYMid meet">
<metadata>
Created by potrace 1.14, written by Peter Selinger 2001-2017
</metadata>
<g transform="translate(0.000000,1960.000000) scale(0.100000,-0.100000)"
fill="#000000" stroke="none">
<path d="M9490 17714 c-633 -35 -1060 -96 -1595 -229 -393 -97 -672 -186
-1025 -327 -1396 -559 -2589 -1487 -3479 -2706 -140 -193 -292 -426 -453 -697
-170 -287 -393 -754 -530 -1110 -701 -1820 -701 -3870 0 -5690 137 -356 360
-823 530 -1110 410 -690 792 -1180 1333 -1710 570 -558 1192 -1008 1894 -1371
862 -445 1781 -723 2755 -833 325 -37 496 -46 900 -45 279 1 452 6 590 18
1099 94 2083 374 3025 860 560 289 1108 662 1580 1076 166 145 601 580 731
730 371 428 614 767 916 1275 170 287 393 754 530 1110 278 722 447 1489 510
2305 16 214 16 877 0 1085 -65 823 -233 1580 -510 2300 -137 356 -360 823
-530 1110 -410 691 -791 1179 -1333 1710 -570 558 -1192 1008 -1894 1371 -956
494 -1983 782 -3080 864 -142 11 -747 21 -865 14z m742 -1264 c1380 -94 2663
-592 3733 -1449 542 -435 1040 -982 1410 -1551 329 -506 564 -995 755 -1570
226 -678 330 -1337 330 -2080 0 -877 -151 -1666 -473 -2475 -419 -1055 -1125
-2006 -2017 -2722 -1075 -861 -2355 -1359 -3738 -1453 -197 -13 -667 -13 -864
0 -900 61 -1744 289 -2533 682 -965 482 -1790 1180 -2430 2057 -604 828 -1019
1825 -1184 2841 -55 338 -81 687 -81 1070 0 744 104 1402 330 2080 181 544
386 982 683 1458 387 618 902 1198 1477 1659 1065 854 2352 1357 3715 1452
177 12 710 13 887 1z"/>
<path d="M8030 13095 c-231 -52 -422 -240 -475 -467 -14 -60 -15 -378 -13
-2965 l3 -2898 22 -65 c69 -200 229 -353 430 -411 81 -23 242 -26 318 -5 95
25 132 45 962 527 123 72 280 163 350 203 71 40 144 82 163 93 19 12 240 139
490 283 250 145 613 354 805 465 504 292 1106 639 1360 785 393 226 698 402
820 473 144 84 232 168 286 272 64 122 74 166 74 305 0 110 -4 134 -27 198
-68 187 -144 266 -399 413 -322 185 -836 482 -1459 842 -333 192 -711 410
-840 485 -129 74 -271 156 -315 182 -44 26 -204 118 -355 205 -151 87 -369
213 -485 280 -340 198 -935 540 -1140 657 -104 60 -219 118 -255 129 -86 27
-234 34 -320 14z m1004 -1839 c116 -68 276 -161 356 -206 148 -84 769 -443
1230 -710 140 -82 314 -182 385 -223 72 -41 200 -114 285 -164 85 -49 221
-127 302 -174 81 -46 146 -88 145 -92 -1 -5 -137 -86 -302 -181 -463 -266
-824 -475 -885 -511 -30 -17 -203 -118 -385 -222 -181 -105 -487 -282 -680
-393 -192 -112 -370 -214 -395 -228 -51 -28 -218 -124 -267 -154 l-33 -20 0
1707 c0 1572 1 1707 16 1701 9 -4 112 -62 228 -130z"/>
</g>
</svg>
